<svg width="24" height="24" viewBox="0 0 24 24" fill="none" xmlns="http://www.w3.org/2000/svg">
<rect width="24" height="24" fill="white"/>
<path fill-rule="evenodd" clip-rule="evenodd" d="M12.3256 4C10.0647 4 9.78096 4.00989 8.89297 4.0503C8.00671 4.09088 7.40177 4.23119 6.87244 4.43706C6.3249 4.64969 5.86044 4.93412 5.39772 5.39702C4.93464 5.85975 4.65021 6.32421 4.43688 6.87157C4.2305 7.40107 4.09001 8.00619 4.05012 8.8921C4.01041 9.78009 4 10.064 4 12.3249C4 14.5858 4.01006 14.8687 4.0503 15.7567C4.09105 16.6429 4.23136 17.2479 4.43706 17.7772C4.64986 18.3247 4.9343 18.7892 5.3972 19.2519C5.85975 19.715 6.32421 20.0001 6.8714 20.2128C7.40107 20.4186 8.00619 20.5589 8.89227 20.5995C9.78026 20.6399 10.0638 20.6498 12.3246 20.6498C14.5856 20.6498 14.8685 20.6399 15.7565 20.5995C16.6428 20.5589 17.2484 20.4186 17.7781 20.2128C18.3254 20.0001 18.7892 19.715 19.2518 19.2519C19.7148 18.7892 19.9993 18.3247 20.2126 17.7774C20.4172 17.2479 20.5577 16.6428 20.5994 15.7569C20.6392 14.8689 20.6496 14.5858 20.6496 12.3249C20.6496 10.064 20.6392 9.78026 20.5994 8.89227C20.5577 8.00602 20.4172 7.40107 20.2126 6.87175C19.9993 6.32421 19.7148 5.85975 19.2518 5.39702C18.7887 4.93395 18.3256 4.64952 17.7776 4.43706C17.2468 4.23119 16.6416 4.09088 15.7553 4.0503C14.8673 4.00989 14.5846 4 12.323 4H12.3256ZM11.5786 5.50037C11.8003 5.50003 12.0476 5.50037 12.3254 5.50037C14.5482 5.50037 14.8116 5.50835 15.6894 5.54824C16.5011 5.58536 16.9416 5.72098 17.235 5.83493C17.6235 5.98582 17.9005 6.16619 18.1917 6.45756C18.4831 6.74894 18.6635 7.02643 18.8147 7.41493C18.9286 7.70803 19.0644 8.14856 19.1014 8.96024C19.1413 9.83782 19.1499 10.1014 19.1499 12.3232C19.1499 14.5449 19.1413 14.8085 19.1014 15.6861C19.0643 16.4978 18.9286 16.9383 18.8147 17.2314C18.6638 17.6199 18.4831 17.8965 18.1917 18.1877C17.9003 18.4791 17.6237 18.6595 17.235 18.8103C16.9419 18.9248 16.5011 19.0601 15.6894 19.0972C14.8118 19.1371 14.5482 19.1458 12.3254 19.1458C10.1025 19.1458 9.83905 19.1371 8.96147 19.0972C8.14979 19.0597 7.70926 18.9241 7.41564 18.8102C7.02714 18.6593 6.74964 18.4789 6.45827 18.1875C6.1669 17.8962 5.98653 17.6194 5.83529 17.2307C5.72134 16.9376 5.58554 16.4971 5.5486 15.6854C5.50871 14.8078 5.50073 14.5442 5.50073 12.3211C5.50073 10.098 5.50871 9.83574 5.5486 8.95816C5.58572 8.14648 5.72134 7.70595 5.83529 7.4125C5.98618 7.024 6.1669 6.74651 6.45827 6.45514C6.74964 6.16376 7.02714 5.98339 7.41564 5.83215C7.70909 5.71769 8.14979 5.58241 8.96147 5.54512C9.72944 5.51043 10.0271 5.50003 11.5786 5.49829V5.50037ZM16.7692 6.88267C16.2177 6.88267 15.7703 7.32962 15.7703 7.88132C15.7703 8.43284 16.2177 8.88031 16.7692 8.88031C17.3206 8.88031 17.7681 8.43284 17.7681 7.88132C17.7681 7.32979 17.3206 6.88232 16.7692 6.88232V6.88267ZM12.3253 8.0498C9.96435 8.0498 8.05017 9.96401 8.05017 12.325C8.05017 14.686 9.96435 16.5993 12.3253 16.5993C14.6862 16.5993 16.5997 14.686 16.5997 12.325C16.5997 9.96401 14.6861 8.0498 12.3251 8.0498H12.3253ZM12.3254 9.55029C13.8579 9.55029 15.1003 10.7926 15.1003 12.3253C15.1003 13.8577 13.8579 15.1002 12.3254 15.1002C10.7928 15.1002 9.55054 13.8577 9.55054 12.3253C9.55054 10.7926 10.7928 9.55029 12.3254 9.55029Z" fill="#9F9F9F"/>
</svg>
