<svg width="220" height="56" viewBox="0 0 220 56" fill="none" xmlns="http://www.w3.org/2000/svg">
<g clip-path="url(#clip0_1_182)">
<path d="M78.8422 37.7381C76.1797 37.7381 73.8889 37.1935 71.9698 36.1043C70.0507 35.0151 68.5811 33.4677 67.561 31.4622C66.541 29.4739 66.0309 27.1485 66.0309 24.486C66.0309 21.858 66.5928 19.5499 67.7166 17.5616C68.8404 15.5561 70.4051 14.0087 72.4107 12.9195C74.4335 11.8303 76.733 11.2856 79.3091 11.2856C80.623 11.2856 81.8938 11.424 83.1213 11.7006C84.3662 11.9599 85.4381 12.323 86.3371 12.7898L85.8184 17.2245C83.7092 16.2563 81.5394 15.7722 79.3091 15.7722C76.6119 15.7722 74.5718 16.5589 73.1887 18.1322C71.8055 19.7228 71.114 21.8148 71.114 24.4082C71.114 27.088 71.7883 29.2318 73.1368 30.8397C74.5027 32.4476 76.465 33.2516 79.0238 33.2516C80.0611 33.2516 81.2282 33.1219 82.5249 32.8626V28.3242H79.0238V24.486H87.167V35.7931C86.2161 36.3636 85.0145 36.8305 83.5622 37.1935C82.0926 37.5566 80.5193 37.7381 78.8422 37.7381ZM99.2262 37.5825C97.3071 37.5825 95.6474 37.1589 94.2469 36.3118C92.8465 35.4646 91.7659 34.3235 91.0052 32.8885C90.2618 31.4708 89.8901 29.8975 89.8901 28.1686C89.8901 26.4569 90.2618 24.875 91.0052 23.4227C91.7659 21.9704 92.8465 20.8206 94.2469 19.9735C95.6474 19.1263 97.3071 18.7027 99.2262 18.7027C101.128 18.7027 102.779 19.1263 104.18 19.9735C105.597 20.8206 106.678 21.9704 107.421 23.4227C108.165 24.875 108.536 26.4569 108.536 28.1686C108.536 29.8975 108.165 31.4708 107.421 32.8885C106.678 34.3235 105.597 35.4646 104.18 36.3118C102.779 37.1589 101.128 37.5825 99.2262 37.5825ZM99.2262 33.874C100.696 33.874 101.846 33.3553 102.675 32.318C103.523 31.2806 103.946 29.8975 103.946 28.1686C103.946 26.4396 103.523 25.0479 102.675 23.9932C101.846 22.9386 100.696 22.4113 99.2262 22.4113C97.7394 22.4113 96.581 22.9386 95.7511 23.9932C94.9212 25.0479 94.5063 26.4396 94.5063 28.1686C94.5063 29.8975 94.9212 31.2806 95.7511 32.318C96.581 33.3553 97.7394 33.874 99.2262 33.874ZM119.921 37.5825C118.002 37.5825 116.343 37.1589 114.942 36.3118C113.542 35.4646 112.461 34.3235 111.7 32.8885C110.957 31.4708 110.585 29.8975 110.585 28.1686C110.585 26.4569 110.957 24.875 111.7 23.4227C112.461 21.9704 113.542 20.8206 114.942 19.9735C116.343 19.1263 118.002 18.7027 119.921 18.7027C121.823 18.7027 123.474 19.1263 124.875 19.9735C126.292 20.8206 127.373 21.9704 128.117 23.4227C128.86 24.875 129.232 26.4569 129.232 28.1686C129.232 29.8975 128.86 31.4708 128.117 32.8885C127.373 34.3235 126.292 35.4646 124.875 36.3118C123.474 37.1589 121.823 37.5825 119.921 37.5825ZM119.921 33.874C121.391 33.874 122.541 33.3553 123.371 32.318C124.218 31.2806 124.641 29.8975 124.641 28.1686C124.641 26.4396 124.218 25.0479 123.371 23.9932C122.541 22.9386 121.391 22.4113 119.921 22.4113C118.435 22.4113 117.276 22.9386 116.446 23.9932C115.616 25.0479 115.201 26.4396 115.201 28.1686C115.201 29.8975 115.616 31.2806 116.446 32.318C117.276 33.3553 118.435 33.874 119.921 33.874ZM144.429 9.98895H148.915V37.2195H144.662L144.61 36.0524C143.902 36.5711 143.167 36.9515 142.406 37.1935C141.645 37.4529 140.746 37.5825 139.709 37.5825C137.928 37.5825 136.407 37.1589 135.145 36.3118C133.865 35.4646 132.906 34.3235 132.266 32.8885C131.609 31.4708 131.28 29.8975 131.28 28.1686C131.28 26.4569 131.609 24.8836 132.266 23.4486C132.906 22.0309 133.865 20.8984 135.145 20.0513C136.407 19.2041 137.928 18.7805 139.709 18.7805C141.472 18.7805 143.046 19.2646 144.429 20.2328V9.98895ZM140.357 33.874C141.775 33.874 142.847 33.364 143.573 32.3439C144.282 31.3411 144.636 29.9493 144.636 28.1686C144.636 26.4051 144.282 25.0133 143.573 23.9932C142.847 22.9904 141.775 22.4891 140.357 22.4891C138.957 22.4891 137.859 23.0077 137.064 24.0451C136.286 25.0824 135.897 26.4569 135.897 28.1686C135.897 29.8975 136.286 31.2806 137.064 32.318C137.859 33.3553 138.957 33.874 140.357 33.874ZM170.7 18.7805C172.429 18.7805 173.907 19.2041 175.135 20.0513C176.362 20.8984 177.296 22.0309 177.935 23.4486C178.558 24.8836 178.869 26.4569 178.869 28.1686C178.869 29.8975 178.558 31.4708 177.935 32.8885C177.296 34.3235 176.362 35.4646 175.135 36.3118C173.907 37.1589 172.429 37.5825 170.7 37.5825C168.798 37.5825 167.069 37.0639 165.513 36.0265L165.435 37.2195H161.234V9.98895H165.721V20.4143C167.207 19.3251 168.867 18.7805 170.7 18.7805ZM170.051 33.874C171.383 33.874 172.42 33.3553 173.164 32.318C173.89 31.2806 174.253 29.8975 174.253 28.1686C174.253 26.4569 173.89 25.0824 173.164 24.0451C172.42 23.0077 171.383 22.4891 170.051 22.4891C168.53 22.4891 167.389 22.9904 166.628 23.9932C165.885 25.0133 165.513 26.4051 165.513 28.1686C165.513 29.9493 165.885 31.3411 166.628 32.3439C167.389 33.364 168.53 33.874 170.051 33.874ZM190.228 37.5825C188.326 37.5825 186.675 37.1589 185.275 36.3118C183.857 35.4646 182.776 34.3235 182.033 32.8885C181.289 31.4708 180.918 29.8975 180.918 28.1686C180.918 26.4569 181.289 24.875 182.033 23.4227C182.776 21.9704 183.857 20.8206 185.275 19.9735C186.675 19.1263 188.326 18.7027 190.228 18.7027C192.147 18.7027 193.807 19.1263 195.207 19.9735C196.608 20.8206 197.688 21.9704 198.449 23.4227C199.192 24.875 199.564 26.4569 199.564 28.1686C199.564 29.8975 199.192 31.4708 198.449 32.8885C197.688 34.3235 196.608 35.4646 195.207 36.3118C193.807 37.1589 192.147 37.5825 190.228 37.5825ZM190.228 33.874C191.715 33.874 192.873 33.3553 193.703 32.318C194.533 31.2806 194.948 29.8975 194.948 28.1686C194.948 26.4396 194.533 25.0479 193.703 23.9932C192.873 22.9386 191.715 22.4113 190.228 22.4113C188.758 22.4113 187.609 22.9386 186.779 23.9932C185.932 25.0479 185.508 26.4396 185.508 28.1686C185.508 29.8975 185.932 31.2806 186.779 32.318C187.609 33.3553 188.758 33.874 190.228 33.874ZM204.154 46.011L208.174 36.0265L200.627 19.0658H205.633L210.275 30.7619L214.995 19.0658H220L208.641 46.011H204.154Z" fill="#321E0F"/>
<path d="M18.7483 11.6278C18.7483 12.0323 18.909 12.4202 19.195 12.7063C19.481 12.9923 19.869 13.153 20.2735 13.153C20.678 13.153 21.0659 12.9923 21.352 12.7063C21.638 12.4202 21.7987 12.0323 21.7987 11.6278C21.7987 11.2233 21.638 10.8353 21.352 10.5493C21.0659 10.2633 20.678 10.1026 20.2735 10.1026C19.869 10.1026 19.481 10.2633 19.195 10.5493C18.909 10.8353 18.7483 11.2233 18.7483 11.6278ZM21.9625 13.6879C21.9625 14.0924 22.1232 14.4803 22.4092 14.7664C22.6952 15.0524 23.0832 15.2131 23.4877 15.2131C23.8922 15.2131 24.2801 15.0524 24.5661 14.7664C24.8522 14.4803 25.0129 14.0924 25.0129 13.6879C25.0129 13.2834 24.8522 12.8955 24.5661 12.6094C24.2801 12.3234 23.8922 12.1627 23.4877 12.1627C23.0832 12.1627 22.6952 12.3234 22.4092 12.6094C22.1232 12.8955 21.9625 13.2834 21.9625 13.6879ZM15.6737 29.9168C16.897 30.2784 18.2223 30.2086 19.6492 29.7086C19.8176 27.1617 19.2962 25.1581 18.3532 25.026C17.3186 24.8807 16.1501 27.04 15.6737 29.9168ZM42.4258 40.6546C43.543 42.1183 44.4069 44.0942 44.8914 46.3701C46.5495 45.0141 48.5583 44.2206 50.7234 44.2206C51.5164 44.2206 52.2892 44.3273 53.0309 44.5291C48.8369 45.6693 45.6186 49.8507 45.1077 55.0166H14.6004C14.23 53.5689 14.0444 52.0803 14.0479 50.586C14.0479 47.3921 14.8686 44.4749 16.221 42.2516C15.3444 39.2283 14.8541 35.8474 14.8541 32.2803C14.8541 31.4919 14.8778 30.7121 14.9251 29.9433C8.85143 28.5574 4.23808 25.21 2.95483 21.0961C2.51165 21.0412 2.08381 20.8987 1.69619 20.677C1.30857 20.4552 0.968897 20.1586 0.696926 19.8044C0.424955 19.4502 0.226109 19.0455 0.11195 18.6137C-0.00220886 18.182 -0.0294035 17.7319 0.0319474 17.2895C0.0932983 16.8472 0.241971 16.4215 0.469321 16.0371C0.69667 15.6527 0.998162 15.3174 1.35627 15.0506C1.71437 14.7838 2.12194 14.5908 2.55528 14.4829C2.98863 14.375 3.4391 14.3543 3.8805 14.4221C6.59464 10.0164 13.316 6.89851 21.1781 6.89851C23.496 6.89851 25.7142 7.16958 27.7599 7.66442C27.9929 3.83602 28.8955 0.983459 29.9717 0.983459C31.1909 0.983459 32.1858 4.64057 32.2406 9.2297L32.4568 9.33351C34.2246 5.61353 36.3152 3.08683 37.3557 3.52862C38.4642 3.99924 37.9768 7.67019 36.2841 11.8533C37.5708 12.9975 38.5461 14.2946 39.1315 15.6932C41.751 19.919 43.374 25.7902 43.374 32.2809C43.374 35.2321 43.0383 38.0558 42.4258 40.6546Z" fill="url(#paint0_linear_1_182)"/>
</g>
<defs>
<linearGradient id="paint0_linear_1_182" x1="-1.82133" y1="1.91702" x2="46.241" y2="24.3289" gradientUnits="userSpaceOnUse">
<stop stop-color="#CD8B65"/>
<stop offset="1" stop-color="#BB6B3D"/>
</linearGradient>
<clipPath id="clip0_1_182">
<rect width="220" height="56" fill="white"/>
</clipPath>
</defs>
</svg>
